<?xml version="1.0"?>
<svg version="1.1" xmlns="http://www.w3.org/2000/svg" width="130" height="37" style=""><path fill="#000000" d="M15.6552734375,27.458984375q0-0.3759765625,0.2578125-0.47802734375t0.55859375-0.10205078125q0.5263671875,0,0.8916015625,0.47265625t0.69287109375,1.03662109375t0.64990234375,1.03662109375t0.7626953125,0.47265625q0.3330078125,0,0.60693359375-0.16650390625t0.47265625-0.4189453125t0.30615234375-0.5693359375t0.107421875-0.62841796875q0-0.81640625-0.32763671875-1.6865234375t-0.837890625-1.7939453125t-1.07958984375-1.890625t-1.07421875-1.9658203125t-0.837890625-2.03564453125t-0.3330078125-2.08935546875q0-1.5791015625,0.9453125-2.44921875t2.4921875-0.8701171875q0.5263671875,0,1.0634765625,0.150390625t0.98828125,0.451171875t0.73583984375,0.7412109375t0.28466796875,1.03125q0,0.193359375-0.28466796875,0.25244140625t-0.41357421875,0.05908203125q-0.193359375,0-0.4189453125-0.04833984375t-0.2900390625-0.26318359375t-0.1826171875-0.494140625t-0.29541015625-0.52099609375t-0.4189453125-0.4189453125t-0.53173828125-0.17724609375q-0.4833984375,0-0.82177734375,0.19873046875t-0.5478515625,0.53173828125t-0.3115234375,0.74658203125t-0.10205078125,0.85400390625q0,1.03125,0.3544921875,2.07861328125t0.880859375,2.083984375t1.14404296875,2.04638671875t1.14404296875,1.9658203125t0.880859375,1.869140625t0.3544921875,1.7294921875q0,0.73046875-0.34375,1.2353515625t-0.8701171875,0.82177734375t-1.16552734375,0.4619140625t-1.25146484375,0.14501953125q-0.6552734375,0-1.3427734375-0.26318359375t-1.2353515625-0.72509765625t-0.90234375-1.07958984375t-0.3544921875-1.33740234375z M24.879267578125,18.671875q0-0.150390625,0.322265625-0.2578125t0.73046875-0.17724609375t0.78955078125-0.10205078125t0.52099609375-0.0537109375q0-0.2900390625,0.021484375-0.58544921875t0.1181640625-0.5263671875t0.30615234375-0.37060546875t0.58544921875-0.1396484375q0.3115234375,0,0.47265625,0.0751953125t0.34375,0.3115234375q0.04296875,0.12890625,0.04296875,0.2470703125l0,0.35986328125t-0.021484375,0.37060546875q0.3974609375-0.04296875,0.78955078125-0.10205078125t0.78955078125-0.05908203125q0.2900390625,0,0.3974609375,0.0107421875t0.21484375,0.2578125q0.0859375,0.2470703125-0.20947265625,0.3759765625t-0.708984375,0.193359375t-0.82177734375,0.0966796875t-0.494140625,0.0322265625q-0.12890625,1.84765625-0.26318359375,3.6630859375t-0.13427734375,3.6845703125q0,0.837890625,0.0537109375,1.7294921875t0.30078125,1.6865234375q0.064453125,0.2470703125,0.21484375,0.4619140625t0.150390625,0.4619140625q0,0.150390625-0.1181640625,0.236328125t-0.28466796875,0.14501953125t-0.3330078125,0.06982421875t-0.27392578125,0.0107421875q-0.6767578125,0-1.03125-0.5048828125t-0.51025390625-1.20849609375t-0.16650390625-1.44482421875t-0.0107421875-1.203125q0-0.9453125,0.03759765625-1.93359375t0.09130859375-1.955078125t0.150390625-1.890625t0.2255859375-1.71875q-0.3759765625,0.04296875-0.73583984375,0.0966796875t-0.73583984375,0.0537109375q-0.0859375,0-0.23095703125-0.0107421875t-0.27392578125-0.0537109375t-0.22021484375-0.1181640625t-0.09130859375-0.21484375z M33.09349609375,25.2353515625q0-0.98828125,0.23095703125-1.93896484375t0.39208984375-1.89599609375q0.04296875-0.2470703125,0.33837890625-0.30615234375t0.49951171875-0.05908203125q0.3544921875,0,0.5693359375,0.107421875q0.0859375,0.04296875,0.1611328125,0.0966796875t0.0751953125,0.1396484375q0,0.923828125-0.22021484375,1.8046875t-0.22021484375,1.869140625q0,0.3330078125,0.04833984375,0.62841796875t0.09130859375,0.58544921875l0.064453125,0.3115234375q0,0.0859375,0.0107421875,0.150390625t0.0322265625,0.150390625q0,0.193359375-0.27392578125,0.26318359375t-0.47802734375,0.06982421875q-0.3115234375,0-0.57470703125-0.12353515625t-0.41357421875-0.42431640625l-0.150390625-0.3115234375q-0.12890625-0.2470703125-0.12890625-0.55322265625t-0.0537109375-0.56396484375z M33.78099609375,18.7685546875l0-0.2041015625q0-0.5048828125,0.25244140625-0.90234375t0.75732421875-0.3974609375q0.064453125,0,0.12353515625,0.0107421875t0.12353515625,0.0107421875q0.12890625,0.021484375,0.33837890625,0.10205078125t0.20947265625,0.25244140625l0,0.021484375q-0.04296875,0.0859375-0.0537109375,0.17724609375t-0.0537109375,0.15576171875l0.021484375-0.021484375q-0.12890625,0.3330078125-0.20947265625,0.537109375t-0.17724609375,0.32763671875t-0.24169921875,0.17724609375t-0.41357421875,0.0537109375q-0.04296875,0-0.150390625-0.0107421875t-0.23095703125-0.04296875t-0.20947265625-0.0859375t-0.0859375-0.1611328125z M37.784287109375,25.2783203125q0-0.7734375,0.19873046875-1.55224609375t0.61767578125-1.396484375t1.06884765625-1.00439453125t1.53076171875-0.38671875q0.3759765625,0,0.8271484375,0.09130859375t0.83251953125,0.2900390625t0.64453125,0.515625t0.26318359375,0.77880859375q0,0.2900390625-0.150390625,0.38671875t-0.3974609375,0.0966796875l-0.0751953125-0.107421875t-0.20947265625-0.27392578125t-0.28466796875-0.3544921875t-0.2900390625-0.31689453125q-0.4404296875-0.4404296875-0.8271484375-0.47265625l-0.0859375,0q-0.322265625,0-0.6015625,0.193359375q-0.3115234375,0.236328125-0.55322265625,0.666015625t-0.40283203125,0.9130859375t-0.25244140625,0.9775390625t-0.09130859375,0.81640625q0,0.4404296875,0.10205078125,1.00439453125t0.34375,1.06884765625t0.6123046875,0.8486328125t0.95068359375,0.34375q0.5263671875,0,0.9560546875-0.2578125t0.82177734375-0.57470703125t0.76806640625-0.5693359375t0.7734375-0.25244140625q0.171875,0,0.34912109375,0.04296875t0.17724609375,0.2255859375l0,0.064453125q-0.193359375,0.5048828125-0.6552734375,0.8916015625t-1.03662109375,0.67138671875t-1.1923828125,0.42431640625t-1.10107421875,0.1396484375q-0.90234375,0-1.58447265625-0.29541015625t-1.13330078125-0.81103515625t-0.68212890625-1.24072265625t-0.23095703125-1.58447265625z M47.158671875,29.8544921875l0.2255859375-0.2685546875q-0.04296875-1.8046875-0.0966796875-3.5986328125t-0.0537109375-3.56640625q0-2.2021484375,0.26318359375-4.25927734375t0.52099609375-4.21630859375q0.021484375-0.12890625,0.12353515625-0.20947265625t0.25244140625-0.13427734375t0.30615234375-0.0751953125t0.28466796875-0.021484375q0.171875,0,0.4296875,0.064453125t0.515625,0.3759765625q0,0.107421875,0.01611328125,0.18798828125t0.01611328125,0.18798828125q0,0.81640625-0.22021484375,1.7509765625t-0.29541015625,1.7939453125q-0.0859375,1.052734375-0.1181640625,2.083984375t-0.0322265625,2.0947265625l0.021484375,0.9453125q0.21484375-0.2685546875,0.6123046875-0.6875t0.859375-0.81103515625t0.923828125-0.67138671875t0.837890625-0.279296875q0.5693359375,0,0.78955078125,0.322265625t0.22021484375,0.8486328125q0,0.4833984375-0.20947265625,1.009765625t-0.5478515625,1.02587890625t-0.76806640625,0.89697265625t-0.8486328125,0.5908203125q0.5693359375,0.708984375,1.16552734375,1.353515625t1.30517578125,1.2138671875l0,0.2470703125q-0.021484375,0.107421875-0.13427734375,0.1611328125t-0.2470703125,0.0859375t-0.26318359375,0.04833984375t-0.21484375,0.01611328125q-0.5263671875,0-1.01513671875-0.3115234375t-0.9130859375-0.7626953125t-0.80029296875-0.9560546875t-0.6875-0.880859375q0.064453125,1.2353515625,0.14501953125,2.46533203125t0.08056640625,2.46533203125q0,0.150390625-0.13427734375,0.25244140625t-0.3115234375,0.15576171875t-0.35986328125,0.0751953125t-0.30078125,0.021484375q-0.6337890625,0-0.89697265625-0.23095703125t-0.44580078125-0.80029296875z M49.3608203125,24.794921875q0.2685546875,0,0.63916015625-0.23095703125t0.76806640625-0.57470703125t0.7412109375-0.72509765625t0.55322265625-0.72509765625t0.20947265625-0.55322265625t-0.2900390625-0.18798828125q-0.107421875,0-0.4404296875,0.3115234375t-0.7412109375,0.7626953125t-0.81640625,0.9775390625t-0.623046875,0.9453125z M55.856298828125,23.09765625q0-0.3115234375,0.17724609375-0.408203125t0.44580078125-0.0966796875q0.4404296875,0,0.67138671875,0.16650390625t0.23095703125,0.58544921875q0,0.5048828125,0.0751953125,1.26220703125t0.22021484375,1.4716796875t0.34375,1.22998046875t0.41357421875,0.515625q0.3974609375,0,0.70361328125-0.6123046875t0.537109375-1.50390625t0.3974609375-1.91748046875t0.23095703125-1.83154296875q0.04296875-0.4404296875,0.20947265625-0.63916015625t0.60693359375-0.19873046875q0.5048828125,0,0.73583984375,0.4189453125t0.29541015625,1.03125q0.0537109375,0.5263671875,0.0537109375,1.095703125l0,0.1826171875l0,0.4296875q0,0.408203125,0.0107421875,0.73046875l0.3115234375,6.5849609375l0.04296875,1.095703125q0.021484375,0.150390625,0.0322265625,0.28466796875t0.0107421875,0.28466796875q0,0.6123046875-0.26318359375,0.78955078125t-0.85400390625,0.17724609375q-0.12890625,0-0.32763671875-0.021484375t-0.38671875-0.0859375t-0.322265625-0.17724609375t-0.13427734375-0.28466796875l0.04296875-0.107421875q0.0537109375-0.64453125,0.0537109375-1.353515625l0-0.2255859375q-0.0107421875-0.837890625-0.0537109375-1.697265625t-0.0966796875-1.71875t-0.0537109375-1.654296875q-0.150390625,0.3330078125-0.34912109375,0.6875t-0.4619140625,0.63916015625t-0.59619140625,0.47265625t-0.751953125,0.18798828125q-0.6123046875,0-1.009765625-0.322265625t-0.61767578125-0.837890625t-0.31689453125-1.15478515625t-0.12890625-1.2783203125t-0.04296875-1.21923828125t-0.0859375-0.9775390625z M68.997646484375,15.4384765625q0-0.12890625,0.12353515625-0.193359375t0.2685546875-0.0966796875t0.26318359375-0.0322265625l0.1181640625,0q0.3759765625,0,0.54248046875,0.171875t0.40283203125,0.4404296875q1.611328125,2.3310546875,2.9541015625,4.79638671875t2.5888671875,4.98974609375q0.107421875-2.943359375,0.22021484375-5.92431640625t0.28466796875-5.91357421875q0-0.12890625,0.12353515625-0.21484375t0.279296875-0.12890625t0.31689453125-0.0537109375t0.2470703125-0.0107421875q0.12890625,0,0.28466796875,0.0107421875t0.3115234375,0.064453125t0.2578125,0.12890625t0.10205078125,0.2041015625q0.04296875,0.4619140625,0.04833984375,0.92919921875t0.00537109375,0.92919921875q0,3.458984375-0.150390625,6.7783203125t-0.150390625,6.703125l0,0.7734375q0,0.04296875-0.04296875,0.12890625q0.021484375,0.0859375,0.064453125,0.18798828125t0.04296875,0.14501953125q0,0.171875-0.17724609375,0.2578125t-0.38671875,0.13427734375t-0.37060546875,0.04833984375t-0.1181640625,0q-0.5478515625,0-0.923828125-0.30078125t-0.3759765625-0.7197265625q-0.794921875-1.783203125-1.58447265625-3.53955078125t-1.64892578125-3.49658203125q-0.5478515625-1.095703125-1.10107421875-2.19677734375t-1.18701171875-2.13232421875q0.021484375,0.021484375,0.021484375,0.064453125q0.107421875,1.07421875,0.23095703125,2.14306640625t0.18798828125,2.14306640625q0.04296875,0.923828125,0.0966796875,1.869140625t0.171875,1.869140625q0,0.3544921875-0.22021484375,0.451171875t-0.51025390625,0.0966796875q-0.2470703125,0-0.46728515625-0.064453125t-0.26318359375-0.322265625q0-0.98828125-0.0751953125-2.10009765625t-0.1396484375-2.23974609375q-0.107421875-1.4931640625-0.28466796875-3.03466796875t-0.17724609375-3.01318359375q0-0.064453125,0.0107421875-0.13427734375t0.0107421875-0.15576171875q-0.064453125-0.107421875-0.14501953125-0.2255859375t-0.08056640625-0.21484375z M80.928671875,25.4931640625q0-0.73046875,0.19873046875-1.4072265625t0.59619140625-1.20849609375t0.99365234375-0.8486328125t1.38037109375-0.31689453125q0.4833984375,0,1.06884765625,0.14501953125t1.10107421875,0.4296875t0.859375,0.72509765625t0.34375,1.009765625q0,0.2685546875-0.09130859375,0.408203125t-0.37060546875,0.1396484375l-0.1181640625-0.021484375q0.3115234375,0.837890625,0.537109375,1.71875t0.4404296875,1.76171875q0.0859375,0.171875,0.12890625,0.30615234375t0.04296875,0.26318359375q0,0.171875-0.0966796875,0.28466796875t-0.25244140625,0.16650390625t-0.322265625,0.0751953125t-0.29541015625,0.021484375q-0.4619140625,0-0.69287109375-0.1611328125t-0.3330078125-0.4404296875t-0.12353515625-0.62841796875t-0.0859375-0.70361328125q-0.12890625,0.4189453125-0.33837890625,0.81640625t-0.494140625,0.71435546875t-0.67138671875,0.5048828125t-0.8701171875,0.18798828125q-0.708984375,0-1.1923828125-0.408203125t-0.77880859375-1.00439453125t-0.4296875-1.27294921875t-0.13427734375-1.2568359375z M82.4540625,25.3427734375q0,0.3974609375,0.0537109375,0.837890625t0.17724609375,0.8701171875t0.31689453125,0.81103515625t0.4833984375,0.67138671875q0.5263671875-0.5693359375,0.77880859375-1.3857421875t0.451171875-1.57373046875t0.451171875-1.2998046875t0.77880859375-0.54248046875q0.3330078125,0,0.55859375,0.1181640625q-0.107421875-0.2685546875-0.3544921875-0.52099609375t-0.55322265625-0.4619140625t-0.6337890625-0.34375t-0.61767578125-0.13427734375q-0.0859375,0-0.19873046875,0.02685546875t-0.17724609375,0.00537109375q-0.4404296875,0.12890625-0.72509765625,0.44580078125t-0.4619140625,0.74658203125t-0.25244140625,0.880859375t-0.0751953125,0.8486328125z M89.798173828125,21.4970703125q0-0.0859375,0.10205078125-0.15576171875t0.23095703125-0.10205078125t0.26318359375-0.04296875t0.19873046875-0.0107421875q0.4833984375,0,0.8271484375,0.4296875t0.59619140625,1.10107421875t0.4296875,1.482421875t0.33837890625,1.61669921875t0.31689453125,1.47705078125t0.34912109375,1.03662109375q0.3330078125-0.6552734375,0.60693359375-1.5791015625t0.5048828125-1.912109375t0.408203125-1.94970703125t0.28466796875-1.68115234375q0.04296875-0.193359375,0.2685546875-0.24169921875t0.3759765625-0.04833984375q0.2470703125,0,0.4296875,0.06982421875t0.1826171875,0.30615234375q0,0.3974609375-0.0966796875,1.07958984375t-0.26318359375,1.53076171875t-0.38671875,1.740234375t-0.47265625,1.69189453125t-0.5263671875,1.41796875t-0.54248046875,0.87548828125q-0.12890625,0.150390625-0.40283203125,0.20947265625t-0.45654296875,0.05908203125q-0.6337890625,0-1.052734375-0.3330078125l0,0.021484375q-0.6552734375-0.6123046875-0.966796875-1.4931640625t-0.451171875-1.8369140625t-0.25244140625-1.9013671875t-0.38134765625-1.71875q-0.04296875-0.0859375-0.107421875-0.25244140625t-0.150390625-0.3330078125t-0.14501953125-0.31689453125t-0.05908203125-0.236328125z M98.27021484375,22.3671875q0-0.751953125,0.06982421875-1.955078125t0.16650390625-2.4814453125t0.24169921875-2.42236328125t0.31689453125-1.75634765625q0.064453125-0.2685546875,0.30615234375-0.322265625t0.48876953125-0.0537109375q0.3330078125,0,0.57470703125,0.1181640625t0.24169921875,0.515625q0,1.955078125-0.24169921875,3.91552734375t-0.26318359375,3.91552734375q0.3330078125-0.5048828125,0.859375-0.75732421875t1.1171875-0.25244140625q0.81640625,0,1.4072265625,0.3330078125t0.9560546875,0.859375t0.54248046875,1.21923828125t0.17724609375,1.41259765625q0,0.3974609375-0.08056640625,0.99365234375t-0.24169921875,1.2568359375t-0.408203125,1.310546875t-0.58544921875,1.16552734375t-0.77880859375,0.83251953125t-0.966796875,0.31689453125q-0.107421875,0-0.28466796875-0.0322265625t-0.3544921875-0.0966796875t-0.29541015625-0.16650390625t-0.1181640625-0.25244140625q0-0.171875,0.20947265625-0.24169921875t0.33837890625-0.06982421875q0.4833984375-0.21484375,0.859375-0.89697265625t0.62841796875-1.49853515625t0.38134765625-1.61669921875t0.12890625-1.30517578125q0-0.2900390625-0.0859375-0.7734375t-0.26318359375-0.9560546875t-0.4833984375-0.81640625t-0.72509765625-0.34375q-0.5048828125,0-0.8056640625,0.52099609375t-0.47265625,1.2138671875t-0.23095703125,1.4287109375t-0.05908203125,1.15478515625q0,0.2685546875,0.09130859375,0.53173828125t0.20947265625,0.5263671875t0.20947265625,0.537109375t0.09130859375,0.54248046875q0,0.12890625-0.11279296875,0.21484375t-0.26318359375,0.1396484375t-0.31689453125,0.06982421875t-0.25244140625,0.01611328125q-0.6123046875,0-0.8486328125-0.2900390625t-0.408203125-0.81640625q-0.3759765625-1.1923828125-0.52099609375-2.42236328125t-0.14501953125-2.46533203125z M107.42975585938,25.4931640625q0-0.73046875,0.19873046875-1.4072265625t0.59619140625-1.20849609375t0.99365234375-0.8486328125t1.38037109375-0.31689453125q0.4833984375,0,1.06884765625,0.14501953125t1.10107421875,0.4296875t0.859375,0.72509765625t0.34375,1.009765625q0,0.2685546875-0.09130859375,0.408203125t-0.37060546875,0.1396484375l-0.1181640625-0.021484375q0.3115234375,0.837890625,0.537109375,1.71875t0.4404296875,1.76171875q0.0859375,0.171875,0.12890625,0.30615234375t0.04296875,0.26318359375q0,0.171875-0.0966796875,0.28466796875t-0.25244140625,0.16650390625t-0.322265625,0.0751953125t-0.29541015625,0.021484375q-0.4619140625,0-0.69287109375-0.1611328125t-0.3330078125-0.4404296875t-0.12353515625-0.62841796875t-0.0859375-0.70361328125q-0.12890625,0.4189453125-0.33837890625,0.81640625t-0.494140625,0.71435546875t-0.67138671875,0.5048828125t-0.8701171875,0.18798828125q-0.708984375,0-1.1923828125-0.408203125t-0.77880859375-1.00439453125t-0.4296875-1.27294921875t-0.13427734375-1.2568359375z M108.95514648438,25.3427734375q0,0.3974609375,0.0537109375,0.837890625t0.17724609375,0.8701171875t0.31689453125,0.81103515625t0.4833984375,0.67138671875q0.5263671875-0.5693359375,0.77880859375-1.3857421875t0.451171875-1.57373046875t0.451171875-1.2998046875t0.77880859375-0.54248046875q0.3330078125,0,0.55859375,0.1181640625q-0.107421875-0.2685546875-0.3544921875-0.52099609375t-0.55322265625-0.4619140625t-0.6337890625-0.34375t-0.61767578125-0.13427734375q-0.0859375,0-0.19873046875,0.02685546875t-0.17724609375,0.00537109375q-0.4404296875,0.12890625-0.72509765625,0.44580078125t-0.4619140625,0.74658203125t-0.25244140625,0.880859375t-0.0751953125,0.8486328125z M116.7396875,22.4853515625q0-0.4404296875,0.15576171875-0.7412109375t0.66064453125-0.30078125q0.193359375,0,0.4833984375,0.05908203125t0.3330078125,0.29541015625q0.107421875,0.6337890625,0.1181640625,1.375t0.0751953125,1.396484375q0.2470703125-0.4833984375,0.6337890625-1.0419921875t0.880859375-1.03125t1.07421875-0.7841796875t1.181640625-0.3115234375q0.04296875,0,0.1611328125,0.0322265625t0.22021484375,0.09130859375t0.12353515625,0.13427734375t-0.1181640625,0.1396484375q-0.04296875,0.12890625-0.1826171875,0.15576171875t-0.2470703125,0.02685546875q-0.064453125,0-0.2041015625-0.0537109375q-0.794921875,0.4189453125-1.353515625,1.138671875t-0.9130859375,1.59521484375t-0.515625,1.84765625t-0.1611328125,1.89599609375q0,0.4619140625-0.20947265625,0.55859375t-0.67138671875,0.0966796875q-0.2470703125,0-0.52099609375-0.0537109375t-0.38134765625-0.34375q-0.193359375-0.6123046875-0.31689453125-1.4072265625t-0.18798828125-1.63818359375t-0.09130859375-1.65966796875t-0.02685546875-1.4716796875z"/><path fill="#" d=""/></svg>
