<svg xmlns="http://www.w3.org/2000/svg" fill="none" viewBox="0 0 16 16"><path fill="#6D7175" d="M14.973 3.602c-.525.23-1.08.383-1.648.452a2.892 2.892 0 001.261-1.588c-.554.323-1.17.559-1.824.69a2.87 2.87 0 00-4.89 2.615 8.13 8.13 0 01-5.915-2.99 2.813 2.813 0 00-.389 1.443 2.87 2.87 0 001.276 2.39 2.86 2.86 0 01-1.3-.36v.035a2.872 2.872 0 002.303 2.816c-.421.113-.862.13-1.29.05a2.88 2.88 0 002.685 1.993A5.756 5.756 0 011 12.337a8.165 8.165 0 004.408 1.288c5.281 0 8.166-4.372 8.166-8.158 0-.122 0-.245-.009-.367A5.795 5.795 0 0015 3.614l-.027-.012z"/></svg>